# xmcd
#
# Track frame offsets: 
#        150
#        12687
#        23542
#        35830
#        48545
#        59430
#        68922
#        83150
#        93377
#        101732
#        114847
#        135407
#        146067
#        158002
#        168245
#        182042
#        194847
#        210260
#        224655
#        238995
#        249267
#        279282
#
# Disc length: 3881 seconds
#
# Revision: 6
# Processed by: cddbd v1.5.2PL0 Copyright (c) Steve Scherf et al.
# Submitted via: ExactAudioCopy v0.99pb4
#
DISCID=3f0f2716
DTITLE=Various Artist - Chess Blues Guitar [CD2]
DYEAR=1998
DGENRE=Blues
TTITLE0=Muddy Waters - Walking Thru The Park
TTITLE1=Eddie Burns - Treat Me Like I Treat You
TTITLE2=Lafayette Thomas - Claim On You
TTITLE3=Jimmy Rogers - Rock This House
TTITLE4=Otis Rush - I'm Satisified
TTITLE5=Chuck Berry - I Still Got The Blues
TTITLE6=Buddy Guy - Broken Hearted Blues
TTITLE7=Elmore James - Talk To Me Baby (I Can't Hold Out)
TTITLE8=Bo Diddly - My Babe
TTITLE9=Albert King - Won't Be Hanging Around
TTITLE10=Bo Diddly - I Can Tell
TTITLE11=Howlin' Wolf - Hidden Charms
TTITLE12=Buddy Guy - Buddy's Boogie
TTITLE13=Little Milton - What Kind Of Love Is This
TTITLE14=Robert Nighthawk - Someday
TTITLE15=Howlin' Wolf - Killing Floor
TTITLE16=Buddy Guy - Leave My Girl Alone
TTITLE17=Clarence Gatemouth Brown - Cross My Heart
TTITLE18=Hound Dog Taylor - Watch Out
TTITLE19=Lonnie Brooks - One Sunny Day
TTITLE20=Little Milton - I Can't Quit You Baby
TTITLE21=Johnny Littlejohn - She's Too Much
EXTD=
EXTT0=
EXTT1=
EXTT2=
EXTT3=
EXTT4=
EXTT5=
EXTT6=
EXTT7=
EXTT8=
EXTT9=
EXTT10=
EXTT11=
EXTT12=
EXTT13=
EXTT14=
EXTT15=
EXTT16=
EXTT17=
EXTT18=
EXTT19=
EXTT20=
EXTT21=
PLAYORDER=
